<svg xmlns="http://www.w3.org/2000/svg">
    <!-- Heroicons v2.1.5 Outline 24x24 -->
    <symbol id="icon-sun" viewBox="0 0 24 24" fill="none" stroke="currentColor" stroke-width="1.5">
        <path stroke-linecap="round" stroke-linejoin="round" d="M12 3v2.25m6.364.386-1.591 1.591M21 12h-2.25m-.386 6.364-1.591-1.591M12 18.75V21m-4.773-4.227-1.591 1.591M5.25 12H3m4.227-4.773L5.636 5.636M15.75 12a3.75 3.75 0 1 1-7.5 0 3.75 3.75 0 0 1 7.5 0Z"/>
    </symbol>
    <symbol id="icon-moon" viewBox="0 0 24 24" fill="none" stroke="currentColor" stroke-width="1.5">
        <path stroke-linecap="round" stroke-linejoin="round" d="M21.752 15.002A9.72 9.72 0 0 1 18 15.75c-5.385 0-9.75-4.365-9.75-9.75 0-1.33.266-2.597.748-3.752A9.753 9.753 0 0 0 3 11.25C3 16.635 7.365 21 12.75 21a9.753 9.753 0 0 0 9.002-5.998Z"/>
    </symbol>
    <symbol id="icon-search" viewBox="0 0 24 24" fill="none" stroke="currentColor" stroke-width="1.5">
        <path stroke-linecap="round" stroke-linejoin="round" d="m21 21-5.197-5.197m0 0A7.5 7.5 0 1 0 5.196 5.196a7.5 7.5 0 0 0 10.607 10.607Z"/>
    </symbol>
    <symbol id="icon-arrow-up-tray" viewBox="0 0 24 24" fill="none" stroke="currentColor" stroke-width="1.5">
        <path stroke-linecap="round" stroke-linejoin="round" d="M3 16.5v2.25A2.25 2.25 0 0 0 5.25 21h13.5A2.25 2.25 0 0 0 21 18.75V16.5m-13.5-9L12 3m0 0 4.5 4.5M12 3v13.5"/>
    </symbol>
    <symbol id="icon-document" viewBox="0 0 24 24" fill="none" stroke="currentColor" stroke-width="1.5">
        <path stroke-linecap="round" stroke-linejoin="round" d="M19.5 14.25v-2.625a3.375 3.375 0 0 0-3.375-3.375h-1.5A1.125 1.125 0 0 1 13.5 7.125v-1.5a3.375 3.375 0 0 0-3.375-3.375H8.25m2.25 0H5.625c-.621 0-1.125.504-1.125 1.125v17.25c0 .621.504 1.125 1.125 1.125h12.75c.621 0 1.125-.504 1.125-1.125V11.25a9 9 0 0 0-9-9Z"/>
    </symbol>
    <symbol id="icon-check" viewBox="0 0 24 24" fill="none" stroke="currentColor" stroke-width="1.5">
        <path stroke-linecap="round" stroke-linejoin="round" d="m4.5 12.75 6 6 9-13.5"/>
    </symbol>
    <symbol id="icon-x-mark" viewBox="0 0 24 24" fill="none" stroke="currentColor" stroke-width="1.5">
        <path stroke-linecap="round" stroke-linejoin="round" d="M6 18 18 6M6 6l12 12"/>
    </symbol>
    <symbol id="icon-question-mark" viewBox="0 0 24 24" fill="none" stroke="currentColor" stroke-width="1.5">
        <path stroke-linecap="round" stroke-linejoin="round" d="M9.879 7.519c1.171-1.025 3.071-1.025 4.242 0 1.172 1.025 1.172 2.687 0 3.712-.203.179-.43.326-.67.442-.745.361-1.45.999-1.45 1.827v.75M21 12a9 9 0 1 1-18 0 9 9 0 0 1 18 0Zm-9 5.25h.008v.008H12v-.008Z"/>
    </symbol>
    <symbol id="icon-minus" viewBox="0 0 24 24" fill="none" stroke="currentColor" stroke-width="1.5">
        <path stroke-linecap="round" stroke-linejoin="round" d="M5 12h14"/>
    </symbol>
    <symbol id="icon-plus" viewBox="0 0 24 24" fill="none" stroke="currentColor" stroke-width="1.5">
        <path stroke-linecap="round" stroke-linejoin="round" d="M12 4.5v15m7.5-7.5h-15"/>
    </symbol>
    <symbol id="icon-arrows-pointing-in" viewBox="0 0 24 24" fill="none" stroke="currentColor" stroke-width="1.5">
        <path stroke-linecap="round" stroke-linejoin="round" d="M9 9V4.5M9 9H4.5M9 9 3.75 3.75M9 15v4.5M9 15H4.5M9 15l-5.25 5.25M15 9h4.5M15 9V4.5M15 9l5.25-5.25M15 15h4.5M15 15v4.5m0-4.5 5.25 5.25"/>
    </symbol>
    <symbol id="icon-arrow-top-right" viewBox="0 0 24 24" fill="none" stroke="currentColor" stroke-width="1.5">
        <path stroke-linecap="round" stroke-linejoin="round" d="M13.5 6H5.25A2.25 2.25 0 0 0 3 8.25v10.5A2.25 2.25 0 0 0 5.25 21h10.5A2.25 2.25 0 0 0 18 18.75V10.5m-10.5 6L21 3m0 0h-5.25M21 3v5.25"/>
    </symbol>
    <symbol id="icon-bookmark" viewBox="0 0 24 24" fill="none" stroke="currentColor" stroke-width="1.5">
        <path stroke-linecap="round" stroke-linejoin="round" d="M17.593 3.322c1.1.128 1.907 1.077 1.907 2.185V21L12 17.25 4.5 21V5.507c0-1.108.806-2.057 1.907-2.185a48.507 48.507 0 0 1 11.186 0Z"/>
    </symbol>
    <symbol id="icon-cloud-arrow-up" viewBox="0 0 24 24" fill="none" stroke="currentColor" stroke-width="1.5">
        <path stroke-linecap="round" stroke-linejoin="round" d="M12 16.5V9.75m0 0 3 3m-3-3-3 3M6.75 19.5a4.5 4.5 0 0 1-1.41-8.775 5.25 5.25 0 0 1 10.233-2.33 3 3 0 0 1 3.758 3.848A3.752 3.752 0 0 1 18 19.5H6.75Z"/>
    </symbol>
    <symbol id="icon-information-circle" viewBox="0 0 24 24" fill="none" stroke="currentColor" stroke-width="1.5">
        <path stroke-linecap="round" stroke-linejoin="round" d="m11.25 11.25.041-.02a.75.75 0 0 1 1.063.852l-.708 2.836a.75.75 0 0 0 1.063.853l.041-.021M21 12a9 9 0 1 1-18 0 9 9 0 0 1 18 0Zm-9-3.75h.008v.008H12V8.25Z"/>
    </symbol>
    <symbol id="icon-funnel" viewBox="0 0 24 24" fill="none" stroke="currentColor" stroke-width="1.5">
        <path stroke-linecap="round" stroke-linejoin="round" d="M12 3c2.755 0 5.455.232 8.083.678.533.09.917.556.917 1.096v1.044a2.25 2.25 0 0 1-.659 1.591l-5.432 5.432a2.25 2.25 0 0 0-.659 1.591v2.927a2.25 2.25 0 0 1-1.244 2.013L9.75 21v-6.568a2.25 2.25 0 0 0-.659-1.591L3.659 7.409A2.25 2.25 0 0 1 3 5.818V4.774c0-.54.384-1.006.917-1.096A48.32 48.32 0 0 1 12 3Z"/>
    </symbol>
    <symbol id="icon-tag" viewBox="0 0 24 24" fill="none" stroke="currentColor" stroke-width="1.5">
        <path stroke-linecap="round" stroke-linejoin="round" d="M9.568 3H5.25A2.25 2.25 0 0 0 3 5.25v4.318c0 .597.237 1.17.659 1.591l9.581 9.581c.699.699 1.78.872 2.607.33a18.095 18.095 0 0 0 5.223-5.223c.542-.827.369-1.908-.33-2.607L11.16 3.66A2.25 2.25 0 0 0 9.568 3Z"/>
        <path stroke-linecap="round" stroke-linejoin="round" d="M6 6h.008v.008H6V6Z"/>
    </symbol>
    <symbol id="icon-chat-bubble-left" viewBox="0 0 24 24" fill="none" stroke="currentColor" stroke-width="1.5">
        <path stroke-linecap="round" stroke-linejoin="round" d="M7.5 8.25h9m-9 3H12m-9.75 1.51c0 1.6 1.123 2.994 2.707 3.227 1.129.166 2.27.293 3.423.379.35.026.67.21.865.501L12 21l2.755-4.133a1.14 1.14 0 0 1 .865-.501 48.172 48.172 0 0 0 3.423-.379c1.584-.233 2.707-1.626 2.707-3.228V6.741c0-1.602-1.123-2.995-2.707-3.228A48.394 48.394 0 0 0 12 3c-2.392 0-4.744.175-7.043.513C3.373 3.746 2.25 5.14 2.25 6.741v6.018Z"/>
    </symbol>
    <symbol id="icon-arrow-left" viewBox="0 0 24 24" fill="none" stroke="currentColor" stroke-width="1.5">
        <path stroke-linecap="round" stroke-linejoin="round" d="M10.5 19.5 3 12m0 0 7.5-7.5M3 12h18"/>
    </symbol>
    <symbol id="icon-square" viewBox="0 0 24 24" fill="none" stroke="currentColor" stroke-width="1.5">
        <path stroke-linecap="round" stroke-linejoin="round" d="M5.25 7.5A2.25 2.25 0 0 1 7.5 5.25h9a2.25 2.25 0 0 1 2.25 2.25v9a2.25 2.25 0 0 1-2.25 2.25h-9a2.25 2.25 0 0 1-2.25-2.25v-9Z"/>
    </symbol>
    <symbol id="icon-hand-raised" viewBox="0 0 24 24" fill="none" stroke="currentColor" stroke-width="1.5">
        <path stroke-linecap="round" stroke-linejoin="round" d="M10.05 4.575a1.575 1.575 0 1 0-3.15 0v3.15m3.15-3.15v-1.5a1.575 1.575 0 0 1 3.15 0v1.5m-3.15 0 .075 5.925m3.075-5.925v2.768a6.75 6.75 0 0 1 1.262-.955 1.575 1.575 0 0 1 2.438 1.262v2.927a6 6 0 0 1-6 6H9.375a5.25 5.25 0 0 1-3.712-1.538L3.525 12.89a1.575 1.575 0 0 1 2.227-2.227l.537.537m3.761-5.625V4.575m0 0h-.075m.075 0h.075"/>
    </symbol>
    <symbol id="icon-bars-3" viewBox="0 0 24 24" fill="none" stroke="currentColor" stroke-width="1.5">
        <path stroke-linecap="round" stroke-linejoin="round" d="M3.75 6.75h16.5M3.75 12h16.5m-16.5 5.25h16.5"/>
    </symbol>
    <symbol id="icon-pencil" viewBox="0 0 24 24" fill="none" stroke="currentColor" stroke-width="1.5">
        <path stroke-linecap="round" stroke-linejoin="round" d="m16.862 4.487 1.687-1.688a1.875 1.875 0 1 1 2.652 2.652L10.582 16.07a4.5 4.5 0 0 1-1.897 1.13L6 18l.8-2.685a4.5 4.5 0 0 1 1.13-1.897l8.932-8.931Zm0 0L19.5 7.125M18 14v4.75A2.25 2.25 0 0 1 15.75 21H5.25A2.25 2.25 0 0 1 3 18.75V8.25A2.25 2.25 0 0 1 5.25 6H10"/>
    </symbol>
</svg>
